# xmcd
#
# Track frame offsets:
#	150
#	20632
#	41257
#	62947
#	79352
#	97985
#	116725
#	132940
#	153052
#	174775
#	195542
#	211967
#	229032
#	248442
#	265895
#
# Disc length: 3846 seconds
#
# Revision: 1
# Processed by: cddbd v1.5PL3 Copyright (c) Steve Scherf et al.
# Submitted via: CDex 1.50Beta5
#
DISCID=bc0f040f
DTITLE=Various Artist - SONGS&STARS
DYEAR=1986
DGENRE=Pop
TTITLE0=小林明子/心みだれて
TTITLE1=舘ひろし/冷たい太陽
TTITLE2=オフコース/ENDLESS NIGHTS
TTITLE3=稲垣潤一/1ダースの言い訳
TTITLE4=岡村孝子/はぐれそうな天使
TTITLE5=ブレッド&バター/さよならの贈り物
TTITLE6=ワイルド・ワンズ/ハート燃えて愛になれ
TTITLE7=チューリップ/愛の風
TTITLE8=舘ひろし/今夜はオールライト
TTITLE9=岡村孝子/夏の日の午後
TTITLE10=鎌田英子/トワイライト・アクシデント
TTITLE11=横山輝一/ブギー・ウォーキン
TTITLE12=稲垣潤一/April
TTITLE13=加山雄三/絆
TTITLE14=小林明子/恋におちて
EXTD=
EXTT0=
EXTT1=
EXTT2=
EXTT3=
EXTT4=
EXTT5=
EXTT6=
EXTT7=
EXTT8=
EXTT9=
EXTT10=
EXTT11=
EXTT12=
EXTT13=
EXTT14=
PLAYORDER=
